<?xml version="1.0" standalone="no"?>
<!DOCTYPE svg PUBLIC "-//W3C//DTD SVG 20010904//EN"
 "http://www.w3.org/TR/2001/REC-SVG-20010904/DTD/svg10.dtd">
<svg version="1.0" xmlns="http://www.w3.org/2000/svg"
 width="1190.000000pt" height="1190.000000pt" viewBox="0 0 1190.000000 1190.000000"
 preserveAspectRatio="xMidYMid meet">
<metadata>
Created by potrace 1.11, written by Peter Selinger 2001-2013
</metadata>
<g transform="translate(0.000000,1190.000000) scale(0.100000,-0.100000)"
fill="#000000" stroke="none">
<path d="M5668 11894 c-2 -2 -35 -6 -73 -9 -39 -3 -90 -8 -115 -12 -25 -3 -56
-7 -70 -8 -14 -1 -32 -5 -40 -8 -8 -3 -22 -6 -30 -6 -19 -1 -65 -9 -65 -11 0
-1 -9 -3 -20 -4 -56 -8 -135 -27 -295 -70 -107 -29 -365 -124 -495 -182 -22
-10 -42 -18 -45 -19 -3 0 -21 -9 -40 -20 -19 -11 -38 -19 -42 -20 -4 0 -13 -6
-19 -12 -7 -7 -17 -13 -22 -13 -29 0 -375 -221 -507 -324 -98 -77 -100 -79
-132 -108 -16 -16 -31 -28 -33 -28 -2 0 -28 -22 -57 -50 -29 -27 -56 -50 -60
-50 -5 0 -8 -4 -8 -8 0 -5 -30 -39 -68 -78 -37 -38 -92 -98 -122 -134 -30 -36
-57 -67 -60 -70 -3 -3 -28 -34 -55 -70 -28 -36 -52 -67 -55 -70 -16 -16 -110
-152 -110 -159 0 -5 -3 -11 -7 -13 -9 -4 -60 -78 -86 -128 -11 -19 -23 -37
-26 -40 -24 -17 -238 -428 -256 -490 -1 -3 -9 -23 -19 -45 -20 -45 -126 -332
-131 -355 -2 -8 -28 -86 -57 -173 l-53 -159 -71 -27 c-40 -16 -87 -39 -105
-51 -36 -25 -88 -80 -89 -93 0 -5 -6 -15 -12 -22 -30 -34 -38 -45 -32 -45 3 0
2 -6 -4 -12 -33 -41 -128 -232 -124 -250 1 -5 -3 -8 -10 -8 -6 0 -9 -3 -5 -6
3 -4 0 -19 -9 -35 -8 -16 -12 -29 -9 -29 3 0 0 -10 -7 -22 -7 -13 -13 -26 -14
-30 -1 -5 -3 -10 -4 -13 -1 -3 -3 -8 -5 -12 -1 -5 -4 -15 -7 -23 -23 -62 -102
-370 -112 -435 -2 -16 -5 -30 -6 -30 -1 0 -3 -9 -5 -20 -1 -11 -5 -33 -8 -49
-4 -16 -10 -50 -14 -75 -8 -52 -10 -60 -13 -63 -3 -4 -7 -69 -16 -248 -12
-246 -9 -476 10 -775 3 -33 5 -60 6 -60 1 0 3 -18 5 -40 4 -42 14 -129 20
-180 12 -93 15 -109 31 -197 11 -62 13 -73 18 -113 3 -22 9 -51 12 -65 3 -14
8 -34 10 -45 13 -67 60 -275 65 -285 1 -3 3 -9 4 -15 1 -5 7 -23 14 -40 7 -16
15 -42 18 -57 3 -16 10 -28 16 -28 6 0 8 -3 4 -6 -3 -4 0 -19 9 -35 8 -16 12
-29 9 -29 -4 0 0 -12 8 -27 17 -33 95 -188 111 -220 6 -13 14 -23 19 -23 4 0
7 -7 7 -15 0 -8 4 -15 8 -15 4 0 15 -12 24 -28 22 -36 112 -130 168 -174 84
-65 122 -76 301 -87 11 -1 25 -23 39 -59 13 -31 26 -61 30 -67 4 -5 21 -48 39
-95 18 -47 37 -94 41 -105 18 -45 35 -90 35 -95 0 -3 4 -10 8 -17 4 -7 -36
-36 -116 -83 -67 -40 -135 -81 -150 -92 -16 -11 -35 -21 -43 -22 -7 -1 -21 -9
-31 -18 -29 -26 -226 -134 -258 -142 -34 -9 -166 -8 -240 0 -74 9 -331 10
-405 2 -103 -12 -144 -19 -212 -34 -35 -8 -81 -17 -103 -20 -44 -6 -48 -8 -52
-29 -6 -28 -11 -50 -13 -50 -1 0 -3 -7 -5 -15 -2 -8 -13 -49 -24 -90 -26 -100
-31 -124 -39 -195 -8 -86 -8 -700 1 -760 11 -74 28 -146 45 -185 9 -19 15 -38
14 -42 -1 -5 2 -8 8 -8 5 0 10 -7 10 -15 0 -26 106 -120 172 -153 75 -37 264
-103 272 -95 3 4 6 2 6 -3 0 -5 26 -10 58 -10 100 -2 216 -15 282 -30 14 -3
39 -7 55 -9 80 -10 329 -59 436 -85 42 -11 85 -21 95 -23 10 -2 26 -7 34 -10
8 -4 26 -8 40 -9 14 -2 27 -6 30 -10 3 -4 17 -8 30 -10 14 -2 30 -7 36 -10 6
-4 26 -10 45 -13 19 -3 67 -15 108 -26 41 -12 85 -23 100 -26 14 -2 30 -8 36
-12 11 -8 91 -33 115 -36 8 -1 24 -6 35 -12 11 -6 47 -20 80 -31 33 -11 74
-26 90 -33 17 -7 32 -13 35 -14 17 -4 124 -47 172 -69 31 -14 61 -26 66 -26 5
0 15 -7 22 -15 7 -8 19 -15 27 -15 22 0 319 -150 356 -179 9 -8 17 -10 17 -6
0 4 8 1 18 -7 9 -8 35 -24 57 -35 22 -11 66 -37 97 -57 32 -20 61 -36 64 -35
4 0 10 -3 13 -8 10 -14 70 -53 81 -53 5 0 10 -4 10 -8 0 -5 16 -16 35 -25 19
-9 35 -21 35 -27 0 -5 6 -10 13 -10 8 0 27 -11 43 -25 16 -14 35 -25 42 -25 6
0 12 -4 12 -10 0 -5 14 -17 32 -26 17 -9 43 -27 57 -40 14 -13 29 -24 34 -24
4 0 13 -5 20 -10 45 -38 61 -50 67 -50 3 0 15 -8 26 -18 10 -9 100 -78 199
-152 99 -74 182 -137 185 -140 3 -3 43 -34 90 -70 47 -35 87 -68 88 -72 2 -4
8 -8 13 -8 4 0 44 -27 87 -59 87 -65 333 -228 360 -238 9 -4 19 -9 22 -12 6
-8 25 -18 156 -86 118 -62 255 -121 296 -129 15 -2 37 -10 50 -17 12 -7 24
-11 26 -10 4 4 75 -10 87 -17 5 -3 16 -7 25 -8 20 -3 55 -12 55 -14 0 -2 9 -4
115 -24 118 -22 156 -26 311 -31 168 -6 219 6 299 73 30 26 58 50 61 55 30 41
212 214 298 283 13 10 41 35 62 54 21 19 64 58 95 85 32 28 68 59 80 70 13 11
51 42 86 70 35 27 65 52 68 55 3 4 23 19 45 35 22 17 42 32 45 35 10 10 158
120 194 145 20 14 42 30 49 36 7 5 82 60 167 120 85 61 162 116 170 122 15 12
176 122 209 142 86 55 207 139 213 148 4 7 8 8 8 4 0 -5 18 5 39 22 21 17 44
31 49 31 6 0 15 6 19 14 4 7 19 19 32 26 14 7 30 17 35 21 40 32 106 78 106
74 0 -3 8 2 18 11 9 9 64 49 122 89 58 40 114 80 125 89 78 59 155 116 160
116 3 0 13 8 23 18 10 9 35 31 57 47 21 17 47 38 57 48 10 9 20 17 23 17 3 0
13 8 23 18 10 9 52 46 92 82 150 132 420 420 420 448 0 5 8 17 18 28 21 23 93
143 118 197 10 20 21 37 26 37 4 0 8 9 8 20 0 11 4 20 8 20 9 0 48 81 44 92
-1 5 3 8 9 8 6 0 9 6 6 14 -3 7 -1 33 5 57 13 58 14 63 27 144 17 106 19 120
21 120 1 0 3 37 5 83 3 74 1 89 -21 130 -31 59 -110 152 -130 152 -8 0 -14 3
-14 8 0 9 -130 50 -180 57 -32 4 -67 9 -170 21 -114 14 -146 17 -250 17 -63 0
-140 -3 -170 -7 -126 -16 -210 -9 -210 17 0 4 -5 7 -11 7 -10 0 -87 57 -139
103 -13 11 -133 108 -194 157 -10 8 -34 30 -53 47 -19 18 -38 33 -43 33 -9 0
-8 33 2 40 3 3 9 21 12 40 4 19 8 40 10 45 2 6 6 24 11 40 4 17 11 35 16 40 4
6 7 12 8 15 1 32 71 110 98 110 7 0 13 3 13 8 0 4 14 13 32 21 42 19 215 192
260 261 34 53 101 179 132 250 53 121 145 455 182 660 1 8 5 26 8 40 3 14 7
45 10 70 3 25 8 54 10 66 2 12 7 45 10 75 4 30 9 77 12 104 3 28 7 61 9 75 4
27 12 140 21 295 3 55 6 217 7 360 0 232 -4 329 -18 431 -2 17 -7 57 -10 90
-3 32 -8 66 -10 74 -3 8 -7 33 -10 55 -3 22 -7 51 -10 65 -3 14 -8 40 -11 59
-7 42 -9 54 -24 116 -25 108 -28 120 -30 120 -1 0 -3 11 -6 25 -7 43 -65 211
-100 292 -19 42 -34 81 -34 86 0 5 -7 15 -15 22 -8 6 -13 15 -12 19 6 21 -113
228 -158 275 -43 44 -99 88 -115 91 -3 1 -21 8 -41 17 -20 9 -45 18 -56 22
-11 3 -20 12 -21 19 -1 13 -53 172 -109 332 -19 55 -36 105 -37 110 -4 15 -78
176 -155 338 -28 59 -51 112 -51 116 0 5 -7 14 -15 21 -9 7 -13 15 -11 18 3 3
-3 17 -14 32 -11 16 -20 33 -20 39 0 6 -11 29 -25 51 -14 22 -25 46 -25 54 0
8 -4 16 -8 18 -5 2 -26 35 -47 73 -21 39 -43 79 -49 90 -6 11 -13 22 -16 25
-8 8 -29 42 -47 78 -9 17 -20 32 -25 32 -4 0 -8 4 -8 9 0 12 -111 174 -211
306 -71 95 -88 117 -134 170 -11 13 -42 49 -70 81 -93 109 -314 324 -422 412
-141 115 -357 266 -463 322 -25 14 -52 29 -60 35 -23 17 -264 127 -350 160
-91 35 -216 77 -245 82 -16 3 -36 10 -43 15 -7 6 -15 8 -19 5 -3 -4 -15 -1
-26 4 -11 6 -34 13 -51 16 -39 7 -47 9 -66 16 -8 3 -28 8 -45 11 -16 3 -40 7
-51 10 -45 10 -112 20 -199 31 -33 3 -71 9 -85 12 -29 6 -527 13 -532 7z"/>
</g>
</svg>
